<svg class="rich-terminal" viewBox="0 0 1287 879.5999999999999" xmlns="http://www.w3.org/2000/svg">
    <!-- Generated with Rich https://www.textualize.io -->
    <style>

    @font-face {
        font-family: "Fira Code";
        src: local("FiraCode-Regular"),
                url("https://cdnjs.cloudflare.com/ajax/libs/firacode/6.2.0/woff2/FiraCode-Regular.woff2") format("woff2"),
                url("https://cdnjs.cloudflare.com/ajax/libs/firacode/6.2.0/woff/FiraCode-Regular.woff") format("woff");
        font-style: normal;
        font-weight: 400;
    }
    @font-face {
        font-family: "Fira Code";
        src: local("FiraCode-Bold"),
                url("https://cdnjs.cloudflare.com/ajax/libs/firacode/6.2.0/woff2/FiraCode-Bold.woff2") format("woff2"),
                url("https://cdnjs.cloudflare.com/ajax/libs/firacode/6.2.0/woff/FiraCode-Bold.woff") format("woff");
        font-style: bold;
        font-weight: 700;
    }

    .terminal-3171505206-matrix {
        font-family: Fira Code, monospace;
        font-size: 20px;
        line-height: 24.4px;
        font-variant-east-asian: full-width;
    }

    .terminal-3171505206-title {
        font-size: 18px;
        font-weight: bold;
        font-family: arial;
    }

    .terminal-3171505206-r1 { fill: #c5c8c6 }
.terminal-3171505206-r2 { fill: #efe4f7;font-weight: bold }
.terminal-3171505206-r3 { fill: #1e1e1e }
.terminal-3171505206-r4 { fill: #f69b45;font-weight: bold }
.terminal-3171505206-r5 { fill: #302837 }
.terminal-3171505206-r6 { fill: #80d0ad }
.terminal-3171505206-r7 { fill: #ededed }
.terminal-3171505206-r8 { fill: #110417 }
.terminal-3171505206-r9 { fill: #a6a6a6 }
.terminal-3171505206-r10 { fill: #ededed;font-weight: bold }
.terminal-3171505206-r11 { fill: #191919 }
.terminal-3171505206-r12 { fill: #000000 }
.terminal-3171505206-r13 { fill: #ac7037;font-weight: bold }
.terminal-3171505206-r14 { fill: #2d2d2d }
.terminal-3171505206-r15 { fill: #cc73ff }
.terminal-3171505206-r16 { fill: #0d0d0d }
.terminal-3171505206-r17 { fill: #4a008b }
.terminal-3171505206-r18 { fill: #f79b45;font-weight: bold }
.terminal-3171505206-r19 { fill: #554f5b }
    </style>

    <defs>
    <clipPath id="terminal-3171505206-clip-terminal">
      <rect x="0" y="0" width="1267.8" height="828.5999999999999" />
    </clipPath>
    <clipPath id="terminal-3171505206-line-0">
    <rect x="0" y="1.5" width="1268.8" height="24.65"/>
            </clipPath>
<clipPath id="terminal-3171505206-line-1">
    <rect x="0" y="25.9" width="1268.8" height="24.65"/>
            </clipPath>
<clipPath id="terminal-3171505206-line-2">
    <rect x="0" y="50.3" width="1268.8" height="24.65"/>
            </clipPath>
<clipPath id="terminal-3171505206-line-3">
    <rect x="0" y="74.7" width="1268.8" height="24.65"/>
            </clipPath>
<clipPath id="terminal-3171505206-line-4">
    <rect x="0" y="99.1" width="1268.8" height="24.65"/>
            </clipPath>
<clipPath id="terminal-3171505206-line-5">
    <rect x="0" y="123.5" width="1268.8" height="24.65"/>
            </clipPath>
<clipPath id="terminal-3171505206-line-6">
    <rect x="0" y="147.9" width="1268.8" height="24.65"/>
            </clipPath>
<clipPath id="terminal-3171505206-line-7">
    <rect x="0" y="172.3" width="1268.8" height="24.65"/>
            </clipPath>
<clipPath id="terminal-3171505206-line-8">
    <rect x="0" y="196.7" width="1268.8" height="24.65"/>
            </clipPath>
<clipPath id="terminal-3171505206-line-9">
    <rect x="0" y="221.1" width="1268.8" height="24.65"/>
            </clipPath>
<clipPath id="terminal-3171505206-line-10">
    <rect x="0" y="245.5" width="1268.8" height="24.65"/>
            </clipPath>
<clipPath id="terminal-3171505206-line-11">
    <rect x="0" y="269.9" width="1268.8" height="24.65"/>
            </clipPath>
<clipPath id="terminal-3171505206-line-12">
    <rect x="0" y="294.3" width="1268.8" height="24.65"/>
            </clipPath>
<clipPath id="terminal-3171505206-line-13">
    <rect x="0" y="318.7" width="1268.8" height="24.65"/>
            </clipPath>
<clipPath id="terminal-3171505206-line-14">
    <rect x="0" y="343.1" width="1268.8" height="24.65"/>
            </clipPath>
<clipPath id="terminal-3171505206-line-15">
    <rect x="0" y="367.5" width="1268.8" height="24.65"/>
            </clipPath>
<clipPath id="terminal-3171505206-line-16">
    <rect x="0" y="391.9" width="1268.8" height="24.65"/>
            </clipPath>
<clipPath id="terminal-3171505206-line-17">
    <rect x="0" y="416.3" width="1268.8" height="24.65"/>
            </clipPath>
<clipPath id="terminal-3171505206-line-18">
    <rect x="0" y="440.7" width="1268.8" height="24.65"/>
            </clipPath>
<clipPath id="terminal-3171505206-line-19">
    <rect x="0" y="465.1" width="1268.8" height="24.65"/>
            </clipPath>
<clipPath id="terminal-3171505206-line-20">
    <rect x="0" y="489.5" width="1268.8" height="24.65"/>
            </clipPath>
<clipPath id="terminal-3171505206-line-21">
    <rect x="0" y="513.9" width="1268.8" height="24.65"/>
            </clipPath>
<clipPath id="terminal-3171505206-line-22">
    <rect x="0" y="538.3" width="1268.8" height="24.65"/>
            </clipPath>
<clipPath id="terminal-3171505206-line-23">
    <rect x="0" y="562.7" width="1268.8" height="24.65"/>
            </clipPath>
<clipPath id="terminal-3171505206-line-24">
    <rect x="0" y="587.1" width="1268.8" height="24.65"/>
            </clipPath>
<clipPath id="terminal-3171505206-line-25">
    <rect x="0" y="611.5" width="1268.8" height="24.65"/>
            </clipPath>
<clipPath id="terminal-3171505206-line-26">
    <rect x="0" y="635.9" width="1268.8" height="24.65"/>
            </clipPath>
<clipPath id="terminal-3171505206-line-27">
    <rect x="0" y="660.3" width="1268.8" height="24.65"/>
            </clipPath>
<clipPath id="terminal-3171505206-line-28">
    <rect x="0" y="684.7" width="1268.8" height="24.65"/>
            </clipPath>
<clipPath id="terminal-3171505206-line-29">
    <rect x="0" y="709.1" width="1268.8" height="24.65"/>
            </clipPath>
<clipPath id="terminal-3171505206-line-30">
    <rect x="0" y="733.5" width="1268.8" height="24.65"/>
            </clipPath>
<clipPath id="terminal-3171505206-line-31">
    <rect x="0" y="757.9" width="1268.8" height="24.65"/>
            </clipPath>
<clipPath id="terminal-3171505206-line-32">
    <rect x="0" y="782.3" width="1268.8" height="24.65"/>
            </clipPath>
    </defs>

    <rect fill="#292929" stroke="rgba(255,255,255,0.35)" stroke-width="1" x="1" y="1" width="1285" height="877.6" rx="8"/><text class="terminal-3171505206-title" fill="#c5c8c6" text-anchor="middle" x="642" y="27">PlugArr</text>
            <g transform="translate(26,22)">
            <circle cx="0" cy="0" r="7" fill="#ff5f57"/>
            <circle cx="22" cy="0" r="7" fill="#febc2e"/>
            <circle cx="44" cy="0" r="7" fill="#28c840"/>
            </g>
        
    <g transform="translate(9, 41)" clip-path="url(#terminal-3171505206-clip-terminal)">
    <rect fill="#8b36c9" x="0" y="1.5" width="317.2" height="24.65" shape-rendering="crispEdges"/><rect fill="#8b36c9" x="317.2" y="1.5" width="622.2" height="24.65" shape-rendering="crispEdges"/><rect fill="#8b36c9" x="939.4" y="1.5" width="329.4" height="24.65" shape-rendering="crispEdges"/><rect fill="#1e1e1e" x="0" y="25.9" width="1268.8" height="24.65" shape-rendering="crispEdges"/><rect fill="#1e1e1e" x="0" y="50.3" width="24.4" height="24.65" shape-rendering="crispEdges"/><rect fill="#1e1e1e" x="24.4" y="50.3" width="1195.6" height="24.65" shape-rendering="crispEdges"/><rect fill="#371550" x="1220" y="50.3" width="24.4" height="24.65" shape-rendering="crispEdges"/><rect fill="#1e1e1e" x="1244.4" y="50.3" width="24.4" height="24.65" shape-rendering="crispEdges"/><rect fill="#1e1e1e" x="0" y="74.7" width="24.4" height="24.65" shape-rendering="crispEdges"/><rect fill="#1e1e1e" x="24.4" y="74.7" width="244" height="24.65" shape-rendering="crispEdges"/><rect fill="#1e1e1e" x="268.4" y="74.7" width="951.6" height="24.65" shape-rendering="crispEdges"/><rect fill="#371550" x="1220" y="74.7" width="24.4" height="24.65" shape-rendering="crispEdges"/><rect fill="#1e1e1e" x="1244.4" y="74.7" width="24.4" height="24.65" shape-rendering="crispEdges"/><rect fill="#1e1e1e" x="0" y="99.1" width="24.4" height="24.65" shape-rendering="crispEdges"/><rect fill="#1e1e1e" x="24.4" y="99.1" width="24.4" height="24.65" shape-rendering="crispEdges"/><rect fill="#1e1e1e" x="48.8" y="99.1" width="12.2" height="24.65" shape-rendering="crispEdges"/><rect fill="#1e1e1e" x="61" y="99.1" width="12.2" height="24.65" shape-rendering="crispEdges"/><rect fill="#302837" x="73.2" y="99.1" width="12.2" height="24.65" shape-rendering="crispEdges"/><rect fill="#1e1e1e" x="85.4" y="99.1" width="12.2" height="24.65" shape-rendering="crispEdges"/><rect fill="#3e2550" x="97.6" y="99.1" width="183" height="24.65" shape-rendering="crispEdges"/><rect fill="#1e1e1e" x="280.6" y="99.1" width="927.2" height="24.65" shape-rendering="crispEdges"/><rect fill="#1e1e1e" x="1207.8" y="99.1" width="12.2" height="24.65" shape-rendering="crispEdges"/><rect fill="#371550" x="1220" y="99.1" width="24.4" height="24.65" shape-rendering="crispEdges"/><rect fill="#1e1e1e" x="1244.4" y="99.1" width="24.4" height="24.65" shape-rendering="crispEdges"/><rect fill="#1e1e1e" x="0" y="123.5" width="24.4" height="24.65" shape-rendering="crispEdges"/><rect fill="#1e1e1e" x="24.4" y="123.5" width="24.4" height="24.65" shape-rendering="crispEdges"/><rect fill="#1e1e1e" x="48.8" y="123.5" width="12.2" height="24.65" shape-rendering="crispEdges"/><rect fill="#1e1e1e" x="61" y="123.5" width="12.2" height="24.65" shape-rendering="crispEdges"/><rect fill="#302837" x="73.2" y="123.5" width="12.2" height="24.65" shape-rendering="crispEdges"/><rect fill="#1e1e1e" x="85.4" y="123.5" width="12.2" height="24.65" shape-rendering="crispEdges"/><rect fill="#1e1e1e" x="97.6" y="123.5" width="97.6" height="24.65" shape-rendering="crispEdges"/><rect fill="#1e1e1e" x="195.2" y="123.5" width="1012.6" height="24.65" shape-rendering="crispEdges"/><rect fill="#1e1e1e" x="1207.8" y="123.5" width="12.2" height="24.65" shape-rendering="crispEdges"/><rect fill="#371550" x="1220" y="123.5" width="24.4" height="24.65" shape-rendering="crispEdges"/><rect fill="#1e1e1e" x="1244.4" y="123.5" width="24.4" height="24.65" shape-rendering="crispEdges"/><rect fill="#1e1e1e" x="0" y="147.9" width="24.4" height="24.65" shape-rendering="crispEdges"/><rect fill="#1e1e1e" x="24.4" y="147.9" width="24.4" height="24.65" shape-rendering="crispEdges"/><rect fill="#1e1e1e" x="48.8" y="147.9" width="12.2" height="24.65" shape-rendering="crispEdges"/><rect fill="#1e1e1e" x="61" y="147.9" width="12.2" height="24.65" shape-rendering="crispEdges"/><rect fill="#302837" x="73.2" y="147.9" width="12.2" height="24.65" shape-rendering="crispEdges"/><rect fill="#1e1e1e" x="85.4" y="147.9" width="12.2" height="24.65" shape-rendering="crispEdges"/><rect fill="#1e1e1e" x="97.6" y="147.9" width="122" height="24.65" shape-rendering="crispEdges"/><rect fill="#1e1e1e" x="219.6" y="147.9" width="988.2" height="24.65" shape-rendering="crispEdges"/><rect fill="#1e1e1e" x="1207.8" y="147.9" width="12.2" height="24.65" shape-rendering="crispEdges"/><rect fill="#371550" x="1220" y="147.9" width="24.4" height="24.65" shape-rendering="crispEdges"/><rect fill="#1e1e1e" x="1244.4" y="147.9" width="24.4" height="24.65" shape-rendering="crispEdges"/><rect fill="#1e1e1e" x="0" y="172.3" width="24.4" height="24.65" shape-rendering="crispEdges"/><rect fill="#1e1e1e" x="24.4" y="172.3" width="24.4" height="24.65" shape-rendering="crispEdges"/><rect fill="#1e1e1e" x="48.8" y="172.3" width="12.2" height="24.65" shape-rendering="crispEdges"/><rect fill="#1e1e1e" x="61" y="172.3" width="12.2" height="24.65" shape-rendering="crispEdges"/><rect fill="#302837" x="73.2" y="172.3" width="12.2" height="24.65" shape-rendering="crispEdges"/><rect fill="#1e1e1e" x="85.4" y="172.3" width="12.2" height="24.65" shape-rendering="crispEdges"/><rect fill="#1e1e1e" x="97.6" y="172.3" width="109.8" height="24.65" shape-rendering="crispEdges"/><rect fill="#1e1e1e" x="207.4" y="172.3" width="1000.4" height="24.65" shape-rendering="crispEdges"/><rect fill="#1e1e1e" x="1207.8" y="172.3" width="12.2" height="24.65" shape-rendering="crispEdges"/><rect fill="#371550" x="1220" y="172.3" width="24.4" height="24.65" shape-rendering="crispEdges"/><rect fill="#1e1e1e" x="1244.4" y="172.3" width="24.4" height="24.65" shape-rendering="crispEdges"/><rect fill="#1e1e1e" x="0" y="196.7" width="24.4" height="24.65" shape-rendering="crispEdges"/><rect fill="#1e1e1e" x="24.4" y="196.7" width="24.4" height="24.65" shape-rendering="crispEdges"/><rect fill="#1e1e1e" x="48.8" y="196.7" width="12.2" height="24.65" shape-rendering="crispEdges"/><rect fill="#1e1e1e" x="61" y="196.7" width="12.2" height="24.65" shape-rendering="crispEdges"/><rect fill="#302837" x="73.2" y="196.7" width="12.2" height="24.65" shape-rendering="crispEdges"/><rect fill="#1e1e1e" x="85.4" y="196.7" width="12.2" height="24.65" shape-rendering="crispEdges"/><rect fill="#1e1e1e" x="97.6" y="196.7" width="85.4" height="24.65" shape-rendering="crispEdges"/><rect fill="#1e1e1e" x="183" y="196.7" width="1024.8" height="24.65" shape-rendering="crispEdges"/><rect fill="#1e1e1e" x="1207.8" y="196.7" width="12.2" height="24.65" shape-rendering="crispEdges"/><rect fill="#371550" x="1220" y="196.7" width="24.4" height="24.65" shape-rendering="crispEdges"/><rect fill="#1e1e1e" x="1244.4" y="196.7" width="24.4" height="24.65" shape-rendering="crispEdges"/><rect fill="#1e1e1e" x="0" y="221.1" width="24.4" height="24.65" shape-rendering="crispEdges"/><rect fill="#1e1e1e" x="24.4" y="221.1" width="109.8" height="24.65" shape-rendering="crispEdges"/><rect fill="#1e1e1e" x="134.2" y="221.1" width="12.2" height="24.65" shape-rendering="crispEdges"/><rect fill="#1e1e1e" x="146.4" y="221.1" width="109.8" height="24.65" shape-rendering="crispEdges"/><rect fill="#1e1e1e" x="256.2" y="221.1" width="12.2" height="24.65" shape-rendering="crispEdges"/><rect fill="#1e1e1e" x="268.4" y="221.1" width="378.2" height="24.65" shape-rendering="crispEdges"/><rect fill="#1e1e1e" x="646.6" y="221.1" width="573.4" height="24.65" shape-rendering="crispEdges"/><rect fill="#371550" x="1220" y="221.1" width="24.4" height="24.65" shape-rendering="crispEdges"/><rect fill="#1e1e1e" x="1244.4" y="221.1" width="24.4" height="24.65" shape-rendering="crispEdges"/><rect fill="#1e1e1e" x="0" y="245.5" width="24.4" height="24.65" shape-rendering="crispEdges"/><rect fill="#1e1e1e" x="24.4" y="245.5" width="1098" height="24.65" shape-rendering="crispEdges"/><rect fill="#1e1e1e" x="1122.4" y="245.5" width="97.6" height="24.65" shape-rendering="crispEdges"/><rect fill="#371550" x="1220" y="245.5" width="24.4" height="24.65" shape-rendering="crispEdges"/><rect fill="#1e1e1e" x="1244.4" y="245.5" width="24.4" height="24.65" shape-rendering="crispEdges"/><rect fill="#1e1e1e" x="0" y="269.9" width="24.4" height="24.65" shape-rendering="crispEdges"/><rect fill="#1e1e1e" x="24.4" y="269.9" width="1195.6" height="24.65" shape-rendering="crispEdges"/><rect fill="#371550" x="1220" y="269.9" width="24.4" height="24.65" shape-rendering="crispEdges"/><rect fill="#1e1e1e" x="1244.4" y="269.9" width="24.4" height="24.65" shape-rendering="crispEdges"/><rect fill="#1e1e1e" x="0" y="294.3" width="24.4" height="24.65" shape-rendering="crispEdges"/><rect fill="#1e1e1e" x="24.4" y="294.3" width="305" height="24.65" shape-rendering="crispEdges"/><rect fill="#1e1e1e" x="329.4" y="294.3" width="890.6" height="24.65" shape-rendering="crispEdges"/><rect fill="#371550" x="1220" y="294.3" width="24.4" height="24.65" shape-rendering="crispEdges"/><rect fill="#1e1e1e" x="1244.4" y="294.3" width="24.4" height="24.65" shape-rendering="crispEdges"/><rect fill="#1e1e1e" x="0" y="318.7" width="24.4" height="24.65" shape-rendering="crispEdges"/><rect fill="#1e1e1e" x="24.4" y="318.7" width="24.4" height="24.65" shape-rendering="crispEdges"/><rect fill="#191919" x="48.8" y="318.7" width="12.2" height="24.65" shape-rendering="crispEdges"/><rect fill="#1e1e1e" x="61" y="318.7" width="1146.8" height="24.65" shape-rendering="crispEdges"/><rect fill="#1e1e1e" x="1207.8" y="318.7" width="12.2" height="24.65" shape-rendering="crispEdges"/><rect fill="#371550" x="1220" y="318.7" width="24.4" height="24.65" shape-rendering="crispEdges"/><rect fill="#1e1e1e" x="1244.4" y="318.7" width="24.4" height="24.65" shape-rendering="crispEdges"/><rect fill="#1e1e1e" x="0" y="343.1" width="24.4" height="24.65" shape-rendering="crispEdges"/><rect fill="#1e1e1e" x="24.4" y="343.1" width="24.4" height="24.65" shape-rendering="crispEdges"/><rect fill="#191919" x="48.8" y="343.1" width="12.2" height="24.65" shape-rendering="crispEdges"/><rect fill="#1e1e1e" x="61" y="343.1" width="24.4" height="24.65" shape-rendering="crispEdges"/><rect fill="#1e1e1e" x="85.4" y="343.1" width="231.8" height="24.65" shape-rendering="crispEdges"/><rect fill="#1e1e1e" x="317.2" y="343.1" width="866.2" height="24.65" shape-rendering="crispEdges"/><rect fill="#1e1e1e" x="1183.4" y="343.1" width="24.4" height="24.65" shape-rendering="crispEdges"/><rect fill="#1e1e1e" x="1207.8" y="343.1" width="12.2" height="24.65" shape-rendering="crispEdges"/><rect fill="#371550" x="1220" y="343.1" width="24.4" height="24.65" shape-rendering="crispEdges"/><rect fill="#1e1e1e" x="1244.4" y="343.1" width="24.4" height="24.65" shape-rendering="crispEdges"/><rect fill="#1e1e1e" x="0" y="367.5" width="24.4" height="24.65" shape-rendering="crispEdges"/><rect fill="#1e1e1e" x="24.4" y="367.5" width="24.4" height="24.65" shape-rendering="crispEdges"/><rect fill="#191919" x="48.8" y="367.5" width="12.2" height="24.65" shape-rendering="crispEdges"/><rect fill="#1e1e1e" x="61" y="367.5" width="1146.8" height="24.65" shape-rendering="crispEdges"/><rect fill="#1e1e1e" x="1207.8" y="367.5" width="12.2" height="24.65" shape-rendering="crispEdges"/><rect fill="#000000" x="1220" y="367.5" width="24.4" height="24.65" shape-rendering="crispEdges"/><rect fill="#1e1e1e" x="1244.4" y="367.5" width="24.4" height="24.65" shape-rendering="crispEdges"/><rect fill="#1e1e1e" x="0" y="391.9" width="24.4" height="24.65" shape-rendering="crispEdges"/><rect fill="#1e1e1e" x="24.4" y="391.9" width="1195.6" height="24.65" shape-rendering="crispEdges"/><rect fill="#000000" x="1220" y="391.9" width="24.4" height="24.65" shape-rendering="crispEdges"/><rect fill="#1e1e1e" x="1244.4" y="391.9" width="24.4" height="24.65" shape-rendering="crispEdges"/><rect fill="#1e1e1e" x="0" y="416.3" width="24.4" height="24.65" shape-rendering="crispEdges"/><rect fill="#1e1e1e" x="24.4" y="416.3" width="231.8" height="24.65" shape-rendering="crispEdges"/><rect fill="#1e1e1e" x="256.2" y="416.3" width="524.6" height="24.65" shape-rendering="crispEdges"/><rect fill="#1e1e1e" x="780.8" y="416.3" width="439.2" height="24.65" shape-rendering="crispEdges"/><rect fill="#000000" x="1220" y="416.3" width="24.4" height="24.65" shape-rendering="crispEdges"/><rect fill="#1e1e1e" x="1244.4" y="416.3" width="24.4" height="24.65" shape-rendering="crispEdges"/><rect fill="#1e1e1e" x="0" y="440.7" width="24.4" height="24.65" shape-rendering="crispEdges"/><rect fill="#1e1e1e" x="24.4" y="440.7" width="24.4" height="24.65" shape-rendering="crispEdges"/><rect fill="#191919" x="48.8" y="440.7" width="12.2" height="24.65" shape-rendering="crispEdges"/><rect fill="#1e1e1e" x="61" y="440.7" width="1146.8" height="24.65" shape-rendering="crispEdges"/><rect fill="#1e1e1e" x="1207.8" y="440.7" width="12.2" height="24.65" shape-rendering="crispEdges"/><rect fill="#000000" x="1220" y="440.7" width="24.4" height="24.65" shape-rendering="crispEdges"/><rect fill="#1e1e1e" x="1244.4" y="440.7" width="24.4" height="24.65" shape-rendering="crispEdges"/><rect fill="#1e1e1e" x="0" y="465.1" width="24.4" height="24.65" shape-rendering="crispEdges"/><rect fill="#1e1e1e" x="24.4" y="465.1" width="24.4" height="24.65" shape-rendering="crispEdges"/><rect fill="#191919" x="48.8" y="465.1" width="12.2" height="24.65" shape-rendering="crispEdges"/><rect fill="#1e1e1e" x="61" y="465.1" width="24.4" height="24.65" shape-rendering="crispEdges"/><rect fill="#1e1e1e" x="85.4" y="465.1" width="109.8" height="24.65" shape-rendering="crispEdges"/><rect fill="#1e1e1e" x="195.2" y="465.1" width="988.2" height="24.65" shape-rendering="crispEdges"/><rect fill="#1e1e1e" x="1183.4" y="465.1" width="24.4" height="24.65" shape-rendering="crispEdges"/><rect fill="#1e1e1e" x="1207.8" y="465.1" width="12.2" height="24.65" shape-rendering="crispEdges"/><rect fill="#000000" x="1220" y="465.1" width="24.4" height="24.65" shape-rendering="crispEdges"/><rect fill="#1e1e1e" x="1244.4" y="465.1" width="24.4" height="24.65" shape-rendering="crispEdges"/><rect fill="#1e1e1e" x="0" y="489.5" width="24.4" height="24.65" shape-rendering="crispEdges"/><rect fill="#1e1e1e" x="24.4" y="489.5" width="24.4" height="24.65" shape-rendering="crispEdges"/><rect fill="#191919" x="48.8" y="489.5" width="12.2" height="24.65" shape-rendering="crispEdges"/><rect fill="#1e1e1e" x="61" y="489.5" width="1146.8" height="24.65" shape-rendering="crispEdges"/><rect fill="#1e1e1e" x="1207.8" y="489.5" width="12.2" height="24.65" shape-rendering="crispEdges"/><rect fill="#000000" x="1220" y="489.5" width="24.4" height="24.65" shape-rendering="crispEdges"/><rect fill="#1e1e1e" x="1244.4" y="489.5" width="24.4" height="24.65" shape-rendering="crispEdges"/><rect fill="#1e1e1e" x="0" y="513.9" width="24.4" height="24.65" shape-rendering="crispEdges"/><rect fill="#1e1e1e" x="24.4" y="513.9" width="1195.6" height="24.65" shape-rendering="crispEdges"/><rect fill="#000000" x="1220" y="513.9" width="24.4" height="24.65" shape-rendering="crispEdges"/><rect fill="#1e1e1e" x="1244.4" y="513.9" width="24.4" height="24.65" shape-rendering="crispEdges"/><rect fill="#1e1e1e" x="0" y="538.3" width="24.4" height="24.65" shape-rendering="crispEdges"/><rect fill="#1e1e1e" x="24.4" y="538.3" width="146.4" height="24.65" shape-rendering="crispEdges"/><rect fill="#1e1e1e" x="170.8" y="538.3" width="512.4" height="24.65" shape-rendering="crispEdges"/><rect fill="#1e1e1e" x="683.2" y="538.3" width="536.8" height="24.65" shape-rendering="crispEdges"/><rect fill="#000000" x="1220" y="538.3" width="24.4" height="24.65" shape-rendering="crispEdges"/><rect fill="#1e1e1e" x="1244.4" y="538.3" width="24.4" height="24.65" shape-rendering="crispEdges"/><rect fill="#1e1e1e" x="0" y="562.7" width="24.4" height="24.65" shape-rendering="crispEdges"/><rect fill="#1e1e1e" x="24.4" y="562.7" width="24.4" height="24.65" shape-rendering="crispEdges"/><rect fill="#191919" x="48.8" y="562.7" width="12.2" height="24.65" shape-rendering="crispEdges"/><rect fill="#1e1e1e" x="61" y="562.7" width="1146.8" height="24.65" shape-rendering="crispEdges"/><rect fill="#1e1e1e" x="1207.8" y="562.7" width="12.2" height="24.65" shape-rendering="crispEdges"/><rect fill="#000000" x="1220" y="562.7" width="24.4" height="24.65" shape-rendering="crispEdges"/><rect fill="#1e1e1e" x="1244.4" y="562.7" width="24.4" height="24.65" shape-rendering="crispEdges"/><rect fill="#1e1e1e" x="0" y="587.1" width="24.4" height="24.65" shape-rendering="crispEdges"/><rect fill="#1e1e1e" x="24.4" y="587.1" width="24.4" height="24.65" shape-rendering="crispEdges"/><rect fill="#191919" x="48.8" y="587.1" width="12.2" height="24.65" shape-rendering="crispEdges"/><rect fill="#1e1e1e" x="61" y="587.1" width="24.4" height="24.65" shape-rendering="crispEdges"/><rect fill="#1e1e1e" x="85.4" y="587.1" width="85.4" height="24.65" shape-rendering="crispEdges"/><rect fill="#1e1e1e" x="170.8" y="587.1" width="1012.6" height="24.65" shape-rendering="crispEdges"/><rect fill="#1e1e1e" x="1183.4" y="587.1" width="24.4" height="24.65" shape-rendering="crispEdges"/><rect fill="#1e1e1e" x="1207.8" y="587.1" width="12.2" height="24.65" shape-rendering="crispEdges"/><rect fill="#000000" x="1220" y="587.1" width="24.4" height="24.65" shape-rendering="crispEdges"/><rect fill="#1e1e1e" x="1244.4" y="587.1" width="24.4" height="24.65" shape-rendering="crispEdges"/><rect fill="#1e1e1e" x="0" y="611.5" width="24.4" height="24.65" shape-rendering="crispEdges"/><rect fill="#1e1e1e" x="24.4" y="611.5" width="24.4" height="24.65" shape-rendering="crispEdges"/><rect fill="#191919" x="48.8" y="611.5" width="12.2" height="24.65" shape-rendering="crispEdges"/><rect fill="#1e1e1e" x="61" y="611.5" width="1146.8" height="24.65" shape-rendering="crispEdges"/><rect fill="#1e1e1e" x="1207.8" y="611.5" width="12.2" height="24.65" shape-rendering="crispEdges"/><rect fill="#000000" x="1220" y="611.5" width="24.4" height="24.65" shape-rendering="crispEdges"/><rect fill="#1e1e1e" x="1244.4" y="611.5" width="24.4" height="24.65" shape-rendering="crispEdges"/><rect fill="#1e1e1e" x="0" y="635.9" width="24.4" height="24.65" shape-rendering="crispEdges"/><rect fill="#1e1e1e" x="24.4" y="635.9" width="1195.6" height="24.65" shape-rendering="crispEdges"/><rect fill="#000000" x="1220" y="635.9" width="24.4" height="24.65" shape-rendering="crispEdges"/><rect fill="#1e1e1e" x="1244.4" y="635.9" width="24.4" height="24.65" shape-rendering="crispEdges"/><rect fill="#1e1e1e" x="0" y="660.3" width="1268.8" height="24.65" shape-rendering="crispEdges"/><rect fill="#1e1e1e" x="0" y="684.7" width="1268.8" height="24.65" shape-rendering="crispEdges"/><rect fill="#1e1e1e" x="0" y="709.1" width="24.4" height="24.65" shape-rendering="crispEdges"/><rect fill="#1e1e1e" x="24.4" y="709.1" width="268.4" height="24.65" shape-rendering="crispEdges"/><rect fill="#1e1e1e" x="292.8" y="709.1" width="24.4" height="24.65" shape-rendering="crispEdges"/><rect fill="#8b36c9" x="317.2" y="709.1" width="195.2" height="24.65" shape-rendering="crispEdges"/><rect fill="#1e1e1e" x="512.4" y="709.1" width="24.4" height="24.65" shape-rendering="crispEdges"/><rect fill="#1e1e1e" x="536.8" y="709.1" width="195.2" height="24.65" shape-rendering="crispEdges"/><rect fill="#1e1e1e" x="732" y="709.1" width="512.4" height="24.65" shape-rendering="crispEdges"/><rect fill="#1e1e1e" x="1244.4" y="709.1" width="24.4" height="24.65" shape-rendering="crispEdges"/><rect fill="#1e1e1e" x="0" y="733.5" width="24.4" height="24.65" shape-rendering="crispEdges"/><rect fill="#1e1e1e" x="24.4" y="733.5" width="268.4" height="24.65" shape-rendering="crispEdges"/><rect fill="#1e1e1e" x="292.8" y="733.5" width="24.4" height="24.65" shape-rendering="crispEdges"/><rect fill="#8b36c9" x="317.2" y="733.5" width="24.4" height="24.65" shape-rendering="crispEdges"/><rect fill="#8b36c9" x="341.6" y="733.5" width="134.2" height="24.65" shape-rendering="crispEdges"/><rect fill="#8b36c9" x="475.8" y="733.5" width="36.6" height="24.65" shape-rendering="crispEdges"/><rect fill="#1e1e1e" x="512.4" y="733.5" width="24.4" height="24.65" shape-rendering="crispEdges"/><rect fill="#1e1e1e" x="536.8" y="733.5" width="48.8" height="24.65" shape-rendering="crispEdges"/><rect fill="#1e1e1e" x="585.6" y="733.5" width="97.6" height="24.65" shape-rendering="crispEdges"/><rect fill="#1e1e1e" x="683.2" y="733.5" width="48.8" height="24.65" shape-rendering="crispEdges"/><rect fill="#1e1e1e" x="732" y="733.5" width="512.4" height="24.65" shape-rendering="crispEdges"/><rect fill="#1e1e1e" x="1244.4" y="733.5" width="24.4" height="24.65" shape-rendering="crispEdges"/><rect fill="#1e1e1e" x="0" y="757.9" width="24.4" height="24.65" shape-rendering="crispEdges"/><rect fill="#1e1e1e" x="24.4" y="757.9" width="268.4" height="24.65" shape-rendering="crispEdges"/><rect fill="#1e1e1e" x="292.8" y="757.9" width="24.4" height="24.65" shape-rendering="crispEdges"/><rect fill="#8b36c9" x="317.2" y="757.9" width="195.2" height="24.65" shape-rendering="crispEdges"/><rect fill="#1e1e1e" x="512.4" y="757.9" width="24.4" height="24.65" shape-rendering="crispEdges"/><rect fill="#1e1e1e" x="536.8" y="757.9" width="195.2" height="24.65" shape-rendering="crispEdges"/><rect fill="#1e1e1e" x="732" y="757.9" width="512.4" height="24.65" shape-rendering="crispEdges"/><rect fill="#1e1e1e" x="1244.4" y="757.9" width="24.4" height="24.65" shape-rendering="crispEdges"/><rect fill="#1e1e1e" x="0" y="782.3" width="1268.8" height="24.65" shape-rendering="crispEdges"/><rect fill="#302837" x="0" y="806.7" width="61" height="24.65" shape-rendering="crispEdges"/><rect fill="#302837" x="61" y="806.7" width="85.4" height="24.65" shape-rendering="crispEdges"/><rect fill="#302837" x="146.4" y="806.7" width="976" height="24.65" shape-rendering="crispEdges"/><rect fill="#302837" x="1122.4" y="806.7" width="12.2" height="24.65" shape-rendering="crispEdges"/><rect fill="#302837" x="1134.6" y="806.7" width="24.4" height="24.65" shape-rendering="crispEdges"/><rect fill="#302837" x="1159" y="806.7" width="97.6" height="24.65" shape-rendering="crispEdges"/><rect fill="#302837" x="1256.6" y="806.7" width="12.2" height="24.65" shape-rendering="crispEdges"/>
    <g class="terminal-3171505206-matrix">
    <text class="terminal-3171505206-r2" x="317.2" y="20" textLength="622.2" clip-path="url(#terminal-3171505206-line-0)">plugarr&#160;0.7.1&#160;&#160;—&#160;&#160;Etape&#160;2/3&#160;-&#160;Chemins&#160;et&#160;plateforme</text><text class="terminal-3171505206-r1" x="1268.8" y="20" textLength="12.2" clip-path="url(#terminal-3171505206-line-0)">
</text><text class="terminal-3171505206-r1" x="1268.8" y="44.4" textLength="12.2" clip-path="url(#terminal-3171505206-line-1)">
</text><text class="terminal-3171505206-r1" x="1268.8" y="68.8" textLength="12.2" clip-path="url(#terminal-3171505206-line-2)">
</text><text class="terminal-3171505206-r4" x="24.4" y="93.2" textLength="244" clip-path="url(#terminal-3171505206-line-3)">Profil&#160;de&#160;plateforme</text><text class="terminal-3171505206-r1" x="1268.8" y="93.2" textLength="12.2" clip-path="url(#terminal-3171505206-line-3)">
</text><text class="terminal-3171505206-r5" x="61" y="117.6" textLength="12.2" clip-path="url(#terminal-3171505206-line-4)">▐</text><text class="terminal-3171505206-r6" x="73.2" y="117.6" textLength="12.2" clip-path="url(#terminal-3171505206-line-4)">●</text><text class="terminal-3171505206-r5" x="85.4" y="117.6" textLength="12.2" clip-path="url(#terminal-3171505206-line-4)">▌</text><text class="terminal-3171505206-r7" x="97.6" y="117.6" textLength="183" clip-path="url(#terminal-3171505206-line-4)">&#160;generic-linux&#160;</text><text class="terminal-3171505206-r1" x="1268.8" y="117.6" textLength="12.2" clip-path="url(#terminal-3171505206-line-4)">
</text><text class="terminal-3171505206-r5" x="61" y="142" textLength="12.2" clip-path="url(#terminal-3171505206-line-5)">▐</text><text class="terminal-3171505206-r8" x="73.2" y="142" textLength="12.2" clip-path="url(#terminal-3171505206-line-5)">●</text><text class="terminal-3171505206-r5" x="85.4" y="142" textLength="12.2" clip-path="url(#terminal-3171505206-line-5)">▌</text><text class="terminal-3171505206-r7" x="97.6" y="142" textLength="97.6" clip-path="url(#terminal-3171505206-line-5)">&#160;unraid&#160;</text><text class="terminal-3171505206-r1" x="1268.8" y="142" textLength="12.2" clip-path="url(#terminal-3171505206-line-5)">
</text><text class="terminal-3171505206-r5" x="61" y="166.4" textLength="12.2" clip-path="url(#terminal-3171505206-line-6)">▐</text><text class="terminal-3171505206-r8" x="73.2" y="166.4" textLength="12.2" clip-path="url(#terminal-3171505206-line-6)">●</text><text class="terminal-3171505206-r5" x="85.4" y="166.4" textLength="12.2" clip-path="url(#terminal-3171505206-line-6)">▌</text><text class="terminal-3171505206-r7" x="97.6" y="166.4" textLength="122" clip-path="url(#terminal-3171505206-line-6)">&#160;synology&#160;</text><text class="terminal-3171505206-r1" x="1268.8" y="166.4" textLength="12.2" clip-path="url(#terminal-3171505206-line-6)">
</text><text class="terminal-3171505206-r5" x="61" y="190.8" textLength="12.2" clip-path="url(#terminal-3171505206-line-7)">▐</text><text class="terminal-3171505206-r8" x="73.2" y="190.8" textLength="12.2" clip-path="url(#terminal-3171505206-line-7)">●</text><text class="terminal-3171505206-r5" x="85.4" y="190.8" textLength="12.2" clip-path="url(#terminal-3171505206-line-7)">▌</text><text class="terminal-3171505206-r7" x="97.6" y="190.8" textLength="109.8" clip-path="url(#terminal-3171505206-line-7)">&#160;windows&#160;</text><text class="terminal-3171505206-r1" x="1268.8" y="190.8" textLength="12.2" clip-path="url(#terminal-3171505206-line-7)">
</text><text class="terminal-3171505206-r5" x="61" y="215.2" textLength="12.2" clip-path="url(#terminal-3171505206-line-8)">▐</text><text class="terminal-3171505206-r8" x="73.2" y="215.2" textLength="12.2" clip-path="url(#terminal-3171505206-line-8)">●</text><text class="terminal-3171505206-r5" x="85.4" y="215.2" textLength="12.2" clip-path="url(#terminal-3171505206-line-8)">▌</text><text class="terminal-3171505206-r7" x="97.6" y="215.2" textLength="85.4" clip-path="url(#terminal-3171505206-line-8)">&#160;macos&#160;</text><text class="terminal-3171505206-r1" x="1268.8" y="215.2" textLength="12.2" clip-path="url(#terminal-3171505206-line-8)">
</text><text class="terminal-3171505206-r9" x="24.4" y="239.6" textLength="109.8" clip-path="url(#terminal-3171505206-line-9)">PUID/PGID</text><text class="terminal-3171505206-r10" x="146.4" y="239.6" textLength="109.8" clip-path="url(#terminal-3171505206-line-9)">1000:1000</text><text class="terminal-3171505206-r9" x="268.4" y="239.6" textLength="378.2" clip-path="url(#terminal-3171505206-line-9)">-&#160;detecte&#160;(utilisateur&#160;courant)</text><text class="terminal-3171505206-r1" x="1268.8" y="239.6" textLength="12.2" clip-path="url(#terminal-3171505206-line-9)">
</text><text class="terminal-3171505206-r9" x="24.4" y="264" textLength="1098" clip-path="url(#terminal-3171505206-line-10)">PUID/PGID&#160;=&#160;l&#x27;utilisateur&#160;Linux,&#160;a&#160;l&#x27;interieur&#160;des&#160;conteneurs,&#160;qui&#160;possedera&#160;vos&#160;fichiers.</text><text class="terminal-3171505206-r1" x="1268.8" y="264" textLength="12.2" clip-path="url(#terminal-3171505206-line-10)">
</text><text class="terminal-3171505206-r1" x="1268.8" y="288.4" textLength="12.2" clip-path="url(#terminal-3171505206-line-11)">
</text><text class="terminal-3171505206-r4" x="24.4" y="312.8" textLength="305" clip-path="url(#terminal-3171505206-line-12)">Racine&#160;des&#160;configurations</text><text class="terminal-3171505206-r1" x="1268.8" y="312.8" textLength="12.2" clip-path="url(#terminal-3171505206-line-12)">
</text><text class="terminal-3171505206-r3" x="48.8" y="337.2" textLength="12.2" clip-path="url(#terminal-3171505206-line-13)">▊</text><text class="terminal-3171505206-r11" x="61" y="337.2" textLength="1146.8" clip-path="url(#terminal-3171505206-line-13)">▔▔▔▔▔▔▔▔▔▔▔▔▔▔▔▔▔▔▔▔▔▔▔▔▔▔▔▔▔▔▔▔▔▔▔▔▔▔▔▔▔▔▔▔▔▔▔▔▔▔▔▔▔▔▔▔▔▔▔▔▔▔▔▔▔▔▔▔▔▔▔▔▔▔▔▔▔▔▔▔▔▔▔▔▔▔▔▔▔▔▔▔▔▔</text><text class="terminal-3171505206-r11" x="1207.8" y="337.2" textLength="12.2" clip-path="url(#terminal-3171505206-line-13)">▎</text><text class="terminal-3171505206-r1" x="1268.8" y="337.2" textLength="12.2" clip-path="url(#terminal-3171505206-line-13)">
</text><text class="terminal-3171505206-r3" x="48.8" y="361.6" textLength="12.2" clip-path="url(#terminal-3171505206-line-14)">▊</text><text class="terminal-3171505206-r7" x="85.4" y="361.6" textLength="231.8" clip-path="url(#terminal-3171505206-line-14)">/opt/plugarr/config</text><text class="terminal-3171505206-r11" x="1207.8" y="361.6" textLength="12.2" clip-path="url(#terminal-3171505206-line-14)">▎</text><text class="terminal-3171505206-r12" x="1220" y="361.6" textLength="24.4" clip-path="url(#terminal-3171505206-line-14)">▄▄</text><text class="terminal-3171505206-r1" x="1268.8" y="361.6" textLength="12.2" clip-path="url(#terminal-3171505206-line-14)">
</text><text class="terminal-3171505206-r3" x="48.8" y="386" textLength="12.2" clip-path="url(#terminal-3171505206-line-15)">▊</text><text class="terminal-3171505206-r11" x="61" y="386" textLength="1146.8" clip-path="url(#terminal-3171505206-line-15)">▁▁▁▁▁▁▁▁▁▁▁▁▁▁▁▁▁▁▁▁▁▁▁▁▁▁▁▁▁▁▁▁▁▁▁▁▁▁▁▁▁▁▁▁▁▁▁▁▁▁▁▁▁▁▁▁▁▁▁▁▁▁▁▁▁▁▁▁▁▁▁▁▁▁▁▁▁▁▁▁▁▁▁▁▁▁▁▁▁▁▁▁▁▁</text><text class="terminal-3171505206-r11" x="1207.8" y="386" textLength="12.2" clip-path="url(#terminal-3171505206-line-15)">▎</text><text class="terminal-3171505206-r1" x="1268.8" y="386" textLength="12.2" clip-path="url(#terminal-3171505206-line-15)">
</text><text class="terminal-3171505206-r1" x="1268.8" y="410.4" textLength="12.2" clip-path="url(#terminal-3171505206-line-16)">
</text><text class="terminal-3171505206-r4" x="24.4" y="434.8" textLength="231.8" clip-path="url(#terminal-3171505206-line-17)">Racine&#160;des&#160;donnees&#160;</text><text class="terminal-3171505206-r13" x="256.2" y="434.8" textLength="524.6" clip-path="url(#terminal-3171505206-line-17)">(montee&#160;sur&#160;/data&#160;dans&#160;TOUS&#160;les&#160;conteneurs)</text><text class="terminal-3171505206-r1" x="1268.8" y="434.8" textLength="12.2" clip-path="url(#terminal-3171505206-line-17)">
</text><text class="terminal-3171505206-r3" x="48.8" y="459.2" textLength="12.2" clip-path="url(#terminal-3171505206-line-18)">▊</text><text class="terminal-3171505206-r11" x="61" y="459.2" textLength="1146.8" clip-path="url(#terminal-3171505206-line-18)">▔▔▔▔▔▔▔▔▔▔▔▔▔▔▔▔▔▔▔▔▔▔▔▔▔▔▔▔▔▔▔▔▔▔▔▔▔▔▔▔▔▔▔▔▔▔▔▔▔▔▔▔▔▔▔▔▔▔▔▔▔▔▔▔▔▔▔▔▔▔▔▔▔▔▔▔▔▔▔▔▔▔▔▔▔▔▔▔▔▔▔▔▔▔</text><text class="terminal-3171505206-r11" x="1207.8" y="459.2" textLength="12.2" clip-path="url(#terminal-3171505206-line-18)">▎</text><text class="terminal-3171505206-r1" x="1268.8" y="459.2" textLength="12.2" clip-path="url(#terminal-3171505206-line-18)">
</text><text class="terminal-3171505206-r3" x="48.8" y="483.6" textLength="12.2" clip-path="url(#terminal-3171505206-line-19)">▊</text><text class="terminal-3171505206-r7" x="85.4" y="483.6" textLength="109.8" clip-path="url(#terminal-3171505206-line-19)">/srv/data</text><text class="terminal-3171505206-r11" x="1207.8" y="483.6" textLength="12.2" clip-path="url(#terminal-3171505206-line-19)">▎</text><text class="terminal-3171505206-r1" x="1268.8" y="483.6" textLength="12.2" clip-path="url(#terminal-3171505206-line-19)">
</text><text class="terminal-3171505206-r3" x="48.8" y="508" textLength="12.2" clip-path="url(#terminal-3171505206-line-20)">▊</text><text class="terminal-3171505206-r11" x="61" y="508" textLength="1146.8" clip-path="url(#terminal-3171505206-line-20)">▁▁▁▁▁▁▁▁▁▁▁▁▁▁▁▁▁▁▁▁▁▁▁▁▁▁▁▁▁▁▁▁▁▁▁▁▁▁▁▁▁▁▁▁▁▁▁▁▁▁▁▁▁▁▁▁▁▁▁▁▁▁▁▁▁▁▁▁▁▁▁▁▁▁▁▁▁▁▁▁▁▁▁▁▁▁▁▁▁▁▁▁▁▁</text><text class="terminal-3171505206-r11" x="1207.8" y="508" textLength="12.2" clip-path="url(#terminal-3171505206-line-20)">▎</text><text class="terminal-3171505206-r1" x="1268.8" y="508" textLength="12.2" clip-path="url(#terminal-3171505206-line-20)">
</text><text class="terminal-3171505206-r1" x="1268.8" y="532.4" textLength="12.2" clip-path="url(#terminal-3171505206-line-21)">
</text><text class="terminal-3171505206-r4" x="24.4" y="556.8" textLength="146.4" clip-path="url(#terminal-3171505206-line-22)">Identifiant&#160;</text><text class="terminal-3171505206-r13" x="170.8" y="556.8" textLength="512.4" clip-path="url(#terminal-3171505206-line-22)">(le&#160;meme&#160;pour&#160;tous&#160;les&#160;services&#160;installes)</text><text class="terminal-3171505206-r1" x="1268.8" y="556.8" textLength="12.2" clip-path="url(#terminal-3171505206-line-22)">
</text><text class="terminal-3171505206-r3" x="48.8" y="581.2" textLength="12.2" clip-path="url(#terminal-3171505206-line-23)">▊</text><text class="terminal-3171505206-r11" x="61" y="581.2" textLength="1146.8" clip-path="url(#terminal-3171505206-line-23)">▔▔▔▔▔▔▔▔▔▔▔▔▔▔▔▔▔▔▔▔▔▔▔▔▔▔▔▔▔▔▔▔▔▔▔▔▔▔▔▔▔▔▔▔▔▔▔▔▔▔▔▔▔▔▔▔▔▔▔▔▔▔▔▔▔▔▔▔▔▔▔▔▔▔▔▔▔▔▔▔▔▔▔▔▔▔▔▔▔▔▔▔▔▔</text><text class="terminal-3171505206-r11" x="1207.8" y="581.2" textLength="12.2" clip-path="url(#terminal-3171505206-line-23)">▎</text><text class="terminal-3171505206-r1" x="1268.8" y="581.2" textLength="12.2" clip-path="url(#terminal-3171505206-line-23)">
</text><text class="terminal-3171505206-r3" x="48.8" y="605.6" textLength="12.2" clip-path="url(#terminal-3171505206-line-24)">▊</text><text class="terminal-3171505206-r7" x="85.4" y="605.6" textLength="85.4" clip-path="url(#terminal-3171505206-line-24)">plugarr</text><text class="terminal-3171505206-r11" x="1207.8" y="605.6" textLength="12.2" clip-path="url(#terminal-3171505206-line-24)">▎</text><text class="terminal-3171505206-r1" x="1268.8" y="605.6" textLength="12.2" clip-path="url(#terminal-3171505206-line-24)">
</text><text class="terminal-3171505206-r3" x="48.8" y="630" textLength="12.2" clip-path="url(#terminal-3171505206-line-25)">▊</text><text class="terminal-3171505206-r11" x="61" y="630" textLength="1146.8" clip-path="url(#terminal-3171505206-line-25)">▁▁▁▁▁▁▁▁▁▁▁▁▁▁▁▁▁▁▁▁▁▁▁▁▁▁▁▁▁▁▁▁▁▁▁▁▁▁▁▁▁▁▁▁▁▁▁▁▁▁▁▁▁▁▁▁▁▁▁▁▁▁▁▁▁▁▁▁▁▁▁▁▁▁▁▁▁▁▁▁▁▁▁▁▁▁▁▁▁▁▁▁▁▁</text><text class="terminal-3171505206-r11" x="1207.8" y="630" textLength="12.2" clip-path="url(#terminal-3171505206-line-25)">▎</text><text class="terminal-3171505206-r1" x="1268.8" y="630" textLength="12.2" clip-path="url(#terminal-3171505206-line-25)">
</text><text class="terminal-3171505206-r1" x="1268.8" y="654.4" textLength="12.2" clip-path="url(#terminal-3171505206-line-26)">
</text><text class="terminal-3171505206-r1" x="1268.8" y="678.8" textLength="12.2" clip-path="url(#terminal-3171505206-line-27)">
</text><text class="terminal-3171505206-r1" x="1268.8" y="703.2" textLength="12.2" clip-path="url(#terminal-3171505206-line-28)">
</text><text class="terminal-3171505206-r14" x="24.4" y="727.6" textLength="268.4" clip-path="url(#terminal-3171505206-line-29)">▔▔▔▔▔▔▔▔▔▔▔▔▔▔▔▔▔▔▔▔▔▔</text><text class="terminal-3171505206-r15" x="317.2" y="727.6" textLength="195.2" clip-path="url(#terminal-3171505206-line-29)">▔▔▔▔▔▔▔▔▔▔▔▔▔▔▔▔</text><text class="terminal-3171505206-r14" x="536.8" y="727.6" textLength="195.2" clip-path="url(#terminal-3171505206-line-29)">▔▔▔▔▔▔▔▔▔▔▔▔▔▔▔▔</text><text class="terminal-3171505206-r1" x="1268.8" y="727.6" textLength="12.2" clip-path="url(#terminal-3171505206-line-29)">
</text><text class="terminal-3171505206-r10" x="24.4" y="752" textLength="268.4" clip-path="url(#terminal-3171505206-line-30)">&#160;Verifier&#160;les&#160;chemins&#160;</text><text class="terminal-3171505206-r2" x="341.6" y="752" textLength="134.2" clip-path="url(#terminal-3171505206-line-30)">&#160;Continuer&#160;</text><text class="terminal-3171505206-r10" x="585.6" y="752" textLength="97.6" clip-path="url(#terminal-3171505206-line-30)">&#160;Retour&#160;</text><text class="terminal-3171505206-r1" x="1268.8" y="752" textLength="12.2" clip-path="url(#terminal-3171505206-line-30)">
</text><text class="terminal-3171505206-r16" x="24.4" y="776.4" textLength="268.4" clip-path="url(#terminal-3171505206-line-31)">▁▁▁▁▁▁▁▁▁▁▁▁▁▁▁▁▁▁▁▁▁▁</text><text class="terminal-3171505206-r17" x="317.2" y="776.4" textLength="195.2" clip-path="url(#terminal-3171505206-line-31)">▁▁▁▁▁▁▁▁▁▁▁▁▁▁▁▁</text><text class="terminal-3171505206-r16" x="536.8" y="776.4" textLength="195.2" clip-path="url(#terminal-3171505206-line-31)">▁▁▁▁▁▁▁▁▁▁▁▁▁▁▁▁</text><text class="terminal-3171505206-r1" x="1268.8" y="776.4" textLength="12.2" clip-path="url(#terminal-3171505206-line-31)">
</text><text class="terminal-3171505206-r1" x="1268.8" y="800.8" textLength="12.2" clip-path="url(#terminal-3171505206-line-32)">
</text><text class="terminal-3171505206-r18" x="0" y="825.2" textLength="61" clip-path="url(#terminal-3171505206-line-33)">&#160;esc&#160;</text><text class="terminal-3171505206-r7" x="61" y="825.2" textLength="85.4" clip-path="url(#terminal-3171505206-line-33)">Retour&#160;</text><text class="terminal-3171505206-r19" x="1122.4" y="825.2" textLength="12.2" clip-path="url(#terminal-3171505206-line-33)">▏</text><text class="terminal-3171505206-r18" x="1134.6" y="825.2" textLength="24.4" clip-path="url(#terminal-3171505206-line-33)">^p</text><text class="terminal-3171505206-r7" x="1159" y="825.2" textLength="97.6" clip-path="url(#terminal-3171505206-line-33)">&#160;palette</text>
    </g>
    </g>
</svg>
