<svg class="rich-terminal" viewBox="0 0 1287 879.5999999999999" xmlns="http://www.w3.org/2000/svg">
    <!-- Generated with Rich https://www.textualize.io -->
    <style>

    @font-face {
        font-family: "Fira Code";
        src: local("FiraCode-Regular"),
                url("https://cdnjs.cloudflare.com/ajax/libs/firacode/6.2.0/woff2/FiraCode-Regular.woff2") format("woff2"),
                url("https://cdnjs.cloudflare.com/ajax/libs/firacode/6.2.0/woff/FiraCode-Regular.woff") format("woff");
        font-style: normal;
        font-weight: 400;
    }
    @font-face {
        font-family: "Fira Code";
        src: local("FiraCode-Bold"),
                url("https://cdnjs.cloudflare.com/ajax/libs/firacode/6.2.0/woff2/FiraCode-Bold.woff2") format("woff2"),
                url("https://cdnjs.cloudflare.com/ajax/libs/firacode/6.2.0/woff/FiraCode-Bold.woff") format("woff");
        font-style: bold;
        font-weight: 700;
    }

    .terminal-4204561768-matrix {
        font-family: Fira Code, monospace;
        font-size: 20px;
        line-height: 24.4px;
        font-variant-east-asian: full-width;
    }

    .terminal-4204561768-title {
        font-size: 18px;
        font-weight: bold;
        font-family: arial;
    }

    .terminal-4204561768-r1 { fill: #c5c8c6 }
.terminal-4204561768-r2 { fill: #efe4f7;font-weight: bold }
.terminal-4204561768-r3 { fill: #ededed;font-weight: bold }
.terminal-4204561768-r4 { fill: #ededed }
.terminal-4204561768-r5 { fill: #acaaaf }
.terminal-4204561768-r6 { fill: #f69b45 }
.terminal-4204561768-r7 { fill: #6de3ab }
.terminal-4204561768-r8 { fill: #2d2d2d }
.terminal-4204561768-r9 { fill: #081811;font-weight: bold }
.terminal-4204561768-r10 { fill: #007c4c }
.terminal-4204561768-r11 { fill: #0d0d0d }
.terminal-4204561768-r12 { fill: #f79b45;font-weight: bold }
.terminal-4204561768-r13 { fill: #554f5b }
    </style>

    <defs>
    <clipPath id="terminal-4204561768-clip-terminal">
      <rect x="0" y="0" width="1267.8" height="828.5999999999999" />
    </clipPath>
    <clipPath id="terminal-4204561768-line-0">
    <rect x="0" y="1.5" width="1268.8" height="24.65"/>
            </clipPath>
<clipPath id="terminal-4204561768-line-1">
    <rect x="0" y="25.9" width="1268.8" height="24.65"/>
            </clipPath>
<clipPath id="terminal-4204561768-line-2">
    <rect x="0" y="50.3" width="1268.8" height="24.65"/>
            </clipPath>
<clipPath id="terminal-4204561768-line-3">
    <rect x="0" y="74.7" width="1268.8" height="24.65"/>
            </clipPath>
<clipPath id="terminal-4204561768-line-4">
    <rect x="0" y="99.1" width="1268.8" height="24.65"/>
            </clipPath>
<clipPath id="terminal-4204561768-line-5">
    <rect x="0" y="123.5" width="1268.8" height="24.65"/>
            </clipPath>
<clipPath id="terminal-4204561768-line-6">
    <rect x="0" y="147.9" width="1268.8" height="24.65"/>
            </clipPath>
<clipPath id="terminal-4204561768-line-7">
    <rect x="0" y="172.3" width="1268.8" height="24.65"/>
            </clipPath>
<clipPath id="terminal-4204561768-line-8">
    <rect x="0" y="196.7" width="1268.8" height="24.65"/>
            </clipPath>
<clipPath id="terminal-4204561768-line-9">
    <rect x="0" y="221.1" width="1268.8" height="24.65"/>
            </clipPath>
<clipPath id="terminal-4204561768-line-10">
    <rect x="0" y="245.5" width="1268.8" height="24.65"/>
            </clipPath>
<clipPath id="terminal-4204561768-line-11">
    <rect x="0" y="269.9" width="1268.8" height="24.65"/>
            </clipPath>
<clipPath id="terminal-4204561768-line-12">
    <rect x="0" y="294.3" width="1268.8" height="24.65"/>
            </clipPath>
<clipPath id="terminal-4204561768-line-13">
    <rect x="0" y="318.7" width="1268.8" height="24.65"/>
            </clipPath>
<clipPath id="terminal-4204561768-line-14">
    <rect x="0" y="343.1" width="1268.8" height="24.65"/>
            </clipPath>
<clipPath id="terminal-4204561768-line-15">
    <rect x="0" y="367.5" width="1268.8" height="24.65"/>
            </clipPath>
<clipPath id="terminal-4204561768-line-16">
    <rect x="0" y="391.9" width="1268.8" height="24.65"/>
            </clipPath>
<clipPath id="terminal-4204561768-line-17">
    <rect x="0" y="416.3" width="1268.8" height="24.65"/>
            </clipPath>
<clipPath id="terminal-4204561768-line-18">
    <rect x="0" y="440.7" width="1268.8" height="24.65"/>
            </clipPath>
<clipPath id="terminal-4204561768-line-19">
    <rect x="0" y="465.1" width="1268.8" height="24.65"/>
            </clipPath>
<clipPath id="terminal-4204561768-line-20">
    <rect x="0" y="489.5" width="1268.8" height="24.65"/>
            </clipPath>
<clipPath id="terminal-4204561768-line-21">
    <rect x="0" y="513.9" width="1268.8" height="24.65"/>
            </clipPath>
<clipPath id="terminal-4204561768-line-22">
    <rect x="0" y="538.3" width="1268.8" height="24.65"/>
            </clipPath>
<clipPath id="terminal-4204561768-line-23">
    <rect x="0" y="562.7" width="1268.8" height="24.65"/>
            </clipPath>
<clipPath id="terminal-4204561768-line-24">
    <rect x="0" y="587.1" width="1268.8" height="24.65"/>
            </clipPath>
<clipPath id="terminal-4204561768-line-25">
    <rect x="0" y="611.5" width="1268.8" height="24.65"/>
            </clipPath>
<clipPath id="terminal-4204561768-line-26">
    <rect x="0" y="635.9" width="1268.8" height="24.65"/>
            </clipPath>
<clipPath id="terminal-4204561768-line-27">
    <rect x="0" y="660.3" width="1268.8" height="24.65"/>
            </clipPath>
<clipPath id="terminal-4204561768-line-28">
    <rect x="0" y="684.7" width="1268.8" height="24.65"/>
            </clipPath>
<clipPath id="terminal-4204561768-line-29">
    <rect x="0" y="709.1" width="1268.8" height="24.65"/>
            </clipPath>
<clipPath id="terminal-4204561768-line-30">
    <rect x="0" y="733.5" width="1268.8" height="24.65"/>
            </clipPath>
<clipPath id="terminal-4204561768-line-31">
    <rect x="0" y="757.9" width="1268.8" height="24.65"/>
            </clipPath>
<clipPath id="terminal-4204561768-line-32">
    <rect x="0" y="782.3" width="1268.8" height="24.65"/>
            </clipPath>
    </defs>

    <rect fill="#292929" stroke="rgba(255,255,255,0.35)" stroke-width="1" x="1" y="1" width="1285" height="877.6" rx="8"/><text class="terminal-4204561768-title" fill="#c5c8c6" text-anchor="middle" x="642" y="27">PlugArr</text>
            <g transform="translate(26,22)">
            <circle cx="0" cy="0" r="7" fill="#ff5f57"/>
            <circle cx="22" cy="0" r="7" fill="#febc2e"/>
            <circle cx="44" cy="0" r="7" fill="#28c840"/>
            </g>
        
    <g transform="translate(9, 41)" clip-path="url(#terminal-4204561768-clip-terminal)">
    <rect fill="#8b36c9" x="0" y="1.5" width="244" height="24.65" shape-rendering="crispEdges"/><rect fill="#8b36c9" x="244" y="1.5" width="768.6" height="24.65" shape-rendering="crispEdges"/><rect fill="#8b36c9" x="1012.6" y="1.5" width="256.2" height="24.65" shape-rendering="crispEdges"/><rect fill="#1e1e1e" x="0" y="25.9" width="1268.8" height="24.65" shape-rendering="crispEdges"/><rect fill="#1e1e1e" x="0" y="50.3" width="24.4" height="24.65" shape-rendering="crispEdges"/><rect fill="#302837" x="24.4" y="50.3" width="158.6" height="24.65" shape-rendering="crispEdges"/><rect fill="#302837" x="183" y="50.3" width="475.8" height="24.65" shape-rendering="crispEdges"/><rect fill="#302837" x="658.8" y="50.3" width="280.6" height="24.65" shape-rendering="crispEdges"/><rect fill="#302837" x="939.4" y="50.3" width="305" height="24.65" shape-rendering="crispEdges"/><rect fill="#1e1e1e" x="1244.4" y="50.3" width="24.4" height="24.65" shape-rendering="crispEdges"/><rect fill="#1e1e1e" x="0" y="74.7" width="24.4" height="24.65" shape-rendering="crispEdges"/><rect fill="#3e2550" x="24.4" y="74.7" width="158.6" height="24.65" shape-rendering="crispEdges"/><rect fill="#3e2550" x="183" y="74.7" width="475.8" height="24.65" shape-rendering="crispEdges"/><rect fill="#3e2550" x="658.8" y="74.7" width="280.6" height="24.65" shape-rendering="crispEdges"/><rect fill="#3e2550" x="939.4" y="74.7" width="305" height="24.65" shape-rendering="crispEdges"/><rect fill="#1e1e1e" x="1244.4" y="74.7" width="24.4" height="24.65" shape-rendering="crispEdges"/><rect fill="#1e1e1e" x="0" y="99.1" width="24.4" height="24.65" shape-rendering="crispEdges"/><rect fill="#1e1e1e" x="24.4" y="99.1" width="158.6" height="24.65" shape-rendering="crispEdges"/><rect fill="#1e1e1e" x="183" y="99.1" width="475.8" height="24.65" shape-rendering="crispEdges"/><rect fill="#1e1e1e" x="658.8" y="99.1" width="280.6" height="24.65" shape-rendering="crispEdges"/><rect fill="#1e1e1e" x="939.4" y="99.1" width="305" height="24.65" shape-rendering="crispEdges"/><rect fill="#1e1e1e" x="1244.4" y="99.1" width="24.4" height="24.65" shape-rendering="crispEdges"/><rect fill="#1e1e1e" x="0" y="123.5" width="24.4" height="24.65" shape-rendering="crispEdges"/><rect fill="#1e1e1e" x="24.4" y="123.5" width="158.6" height="24.65" shape-rendering="crispEdges"/><rect fill="#1e1e1e" x="183" y="123.5" width="475.8" height="24.65" shape-rendering="crispEdges"/><rect fill="#1e1e1e" x="658.8" y="123.5" width="280.6" height="24.65" shape-rendering="crispEdges"/><rect fill="#1e1e1e" x="939.4" y="123.5" width="305" height="24.65" shape-rendering="crispEdges"/><rect fill="#1e1e1e" x="1244.4" y="123.5" width="24.4" height="24.65" shape-rendering="crispEdges"/><rect fill="#1e1e1e" x="0" y="147.9" width="24.4" height="24.65" shape-rendering="crispEdges"/><rect fill="#1e1e1e" x="24.4" y="147.9" width="158.6" height="24.65" shape-rendering="crispEdges"/><rect fill="#1e1e1e" x="183" y="147.9" width="475.8" height="24.65" shape-rendering="crispEdges"/><rect fill="#1e1e1e" x="658.8" y="147.9" width="280.6" height="24.65" shape-rendering="crispEdges"/><rect fill="#1e1e1e" x="939.4" y="147.9" width="305" height="24.65" shape-rendering="crispEdges"/><rect fill="#1e1e1e" x="1244.4" y="147.9" width="24.4" height="24.65" shape-rendering="crispEdges"/><rect fill="#1e1e1e" x="0" y="172.3" width="24.4" height="24.65" shape-rendering="crispEdges"/><rect fill="#1e1e1e" x="24.4" y="172.3" width="158.6" height="24.65" shape-rendering="crispEdges"/><rect fill="#1e1e1e" x="183" y="172.3" width="475.8" height="24.65" shape-rendering="crispEdges"/><rect fill="#1e1e1e" x="658.8" y="172.3" width="280.6" height="24.65" shape-rendering="crispEdges"/><rect fill="#1e1e1e" x="939.4" y="172.3" width="305" height="24.65" shape-rendering="crispEdges"/><rect fill="#1e1e1e" x="1244.4" y="172.3" width="24.4" height="24.65" shape-rendering="crispEdges"/><rect fill="#1e1e1e" x="0" y="196.7" width="24.4" height="24.65" shape-rendering="crispEdges"/><rect fill="#1e1e1e" x="24.4" y="196.7" width="158.6" height="24.65" shape-rendering="crispEdges"/><rect fill="#1e1e1e" x="183" y="196.7" width="475.8" height="24.65" shape-rendering="crispEdges"/><rect fill="#1e1e1e" x="658.8" y="196.7" width="280.6" height="24.65" shape-rendering="crispEdges"/><rect fill="#1e1e1e" x="939.4" y="196.7" width="305" height="24.65" shape-rendering="crispEdges"/><rect fill="#1e1e1e" x="1244.4" y="196.7" width="24.4" height="24.65" shape-rendering="crispEdges"/><rect fill="#1e1e1e" x="0" y="221.1" width="24.4" height="24.65" shape-rendering="crispEdges"/><rect fill="#1e1e1e" x="24.4" y="221.1" width="1220" height="24.65" shape-rendering="crispEdges"/><rect fill="#1e1e1e" x="1244.4" y="221.1" width="24.4" height="24.65" shape-rendering="crispEdges"/><rect fill="#1e1e1e" x="0" y="245.5" width="24.4" height="24.65" shape-rendering="crispEdges"/><rect fill="#302837" x="24.4" y="245.5" width="1220" height="24.65" shape-rendering="crispEdges"/><rect fill="#1e1e1e" x="1244.4" y="245.5" width="24.4" height="24.65" shape-rendering="crispEdges"/><rect fill="#1e1e1e" x="0" y="269.9" width="24.4" height="24.65" shape-rendering="crispEdges"/><rect fill="#302837" x="24.4" y="269.9" width="24.4" height="24.65" shape-rendering="crispEdges"/><rect fill="#302837" x="48.8" y="269.9" width="170.8" height="24.65" shape-rendering="crispEdges"/><rect fill="#302837" x="219.6" y="269.9" width="256.2" height="24.65" shape-rendering="crispEdges"/><rect fill="#302837" x="475.8" y="269.9" width="744.2" height="24.65" shape-rendering="crispEdges"/><rect fill="#302837" x="1220" y="269.9" width="24.4" height="24.65" shape-rendering="crispEdges"/><rect fill="#1e1e1e" x="1244.4" y="269.9" width="24.4" height="24.65" shape-rendering="crispEdges"/><rect fill="#1e1e1e" x="0" y="294.3" width="24.4" height="24.65" shape-rendering="crispEdges"/><rect fill="#302837" x="24.4" y="294.3" width="24.4" height="24.65" shape-rendering="crispEdges"/><rect fill="#302837" x="48.8" y="294.3" width="85.4" height="24.65" shape-rendering="crispEdges"/><rect fill="#302837" x="134.2" y="294.3" width="634.4" height="24.65" shape-rendering="crispEdges"/><rect fill="#302837" x="768.6" y="294.3" width="451.4" height="24.65" shape-rendering="crispEdges"/><rect fill="#302837" x="1220" y="294.3" width="24.4" height="24.65" shape-rendering="crispEdges"/><rect fill="#1e1e1e" x="1244.4" y="294.3" width="24.4" height="24.65" shape-rendering="crispEdges"/><rect fill="#1e1e1e" x="0" y="318.7" width="24.4" height="24.65" shape-rendering="crispEdges"/><rect fill="#302837" x="24.4" y="318.7" width="24.4" height="24.65" shape-rendering="crispEdges"/><rect fill="#302837" x="48.8" y="318.7" width="109.8" height="24.65" shape-rendering="crispEdges"/><rect fill="#302837" x="158.6" y="318.7" width="195.2" height="24.65" shape-rendering="crispEdges"/><rect fill="#302837" x="353.8" y="318.7" width="378.2" height="24.65" shape-rendering="crispEdges"/><rect fill="#302837" x="732" y="318.7" width="488" height="24.65" shape-rendering="crispEdges"/><rect fill="#302837" x="1220" y="318.7" width="24.4" height="24.65" shape-rendering="crispEdges"/><rect fill="#1e1e1e" x="1244.4" y="318.7" width="24.4" height="24.65" shape-rendering="crispEdges"/><rect fill="#1e1e1e" x="0" y="343.1" width="24.4" height="24.65" shape-rendering="crispEdges"/><rect fill="#302837" x="24.4" y="343.1" width="24.4" height="24.65" shape-rendering="crispEdges"/><rect fill="#302837" x="48.8" y="343.1" width="122" height="24.65" shape-rendering="crispEdges"/><rect fill="#302837" x="170.8" y="343.1" width="219.6" height="24.65" shape-rendering="crispEdges"/><rect fill="#302837" x="390.4" y="343.1" width="829.6" height="24.65" shape-rendering="crispEdges"/><rect fill="#302837" x="1220" y="343.1" width="24.4" height="24.65" shape-rendering="crispEdges"/><rect fill="#1e1e1e" x="1244.4" y="343.1" width="24.4" height="24.65" shape-rendering="crispEdges"/><rect fill="#1e1e1e" x="0" y="367.5" width="24.4" height="24.65" shape-rendering="crispEdges"/><rect fill="#302837" x="24.4" y="367.5" width="24.4" height="24.65" shape-rendering="crispEdges"/><rect fill="#302837" x="48.8" y="367.5" width="36.6" height="24.65" shape-rendering="crispEdges"/><rect fill="#302837" x="85.4" y="367.5" width="353.8" height="24.65" shape-rendering="crispEdges"/><rect fill="#302837" x="439.2" y="367.5" width="768.6" height="24.65" shape-rendering="crispEdges"/><rect fill="#302837" x="1207.8" y="367.5" width="12.2" height="24.65" shape-rendering="crispEdges"/><rect fill="#302837" x="1220" y="367.5" width="24.4" height="24.65" shape-rendering="crispEdges"/><rect fill="#1e1e1e" x="1244.4" y="367.5" width="24.4" height="24.65" shape-rendering="crispEdges"/><rect fill="#1e1e1e" x="0" y="391.9" width="24.4" height="24.65" shape-rendering="crispEdges"/><rect fill="#302837" x="24.4" y="391.9" width="24.4" height="24.65" shape-rendering="crispEdges"/><rect fill="#302837" x="48.8" y="391.9" width="109.8" height="24.65" shape-rendering="crispEdges"/><rect fill="#302837" x="158.6" y="391.9" width="1061.4" height="24.65" shape-rendering="crispEdges"/><rect fill="#302837" x="1220" y="391.9" width="24.4" height="24.65" shape-rendering="crispEdges"/><rect fill="#1e1e1e" x="1244.4" y="391.9" width="24.4" height="24.65" shape-rendering="crispEdges"/><rect fill="#1e1e1e" x="0" y="416.3" width="24.4" height="24.65" shape-rendering="crispEdges"/><rect fill="#302837" x="24.4" y="416.3" width="24.4" height="24.65" shape-rendering="crispEdges"/><rect fill="#302837" x="48.8" y="416.3" width="170.8" height="24.65" shape-rendering="crispEdges"/><rect fill="#302837" x="219.6" y="416.3" width="36.6" height="24.65" shape-rendering="crispEdges"/><rect fill="#302837" x="256.2" y="416.3" width="963.8" height="24.65" shape-rendering="crispEdges"/><rect fill="#302837" x="1220" y="416.3" width="24.4" height="24.65" shape-rendering="crispEdges"/><rect fill="#1e1e1e" x="1244.4" y="416.3" width="24.4" height="24.65" shape-rendering="crispEdges"/><rect fill="#1e1e1e" x="0" y="440.7" width="24.4" height="24.65" shape-rendering="crispEdges"/><rect fill="#302837" x="24.4" y="440.7" width="1220" height="24.65" shape-rendering="crispEdges"/><rect fill="#1e1e1e" x="1244.4" y="440.7" width="24.4" height="24.65" shape-rendering="crispEdges"/><rect fill="#1e1e1e" x="0" y="465.1" width="24.4" height="24.65" shape-rendering="crispEdges"/><rect fill="#1e1e1e" x="24.4" y="465.1" width="1220" height="24.65" shape-rendering="crispEdges"/><rect fill="#1e1e1e" x="1244.4" y="465.1" width="24.4" height="24.65" shape-rendering="crispEdges"/><rect fill="#1e1e1e" x="0" y="489.5" width="24.4" height="24.65" shape-rendering="crispEdges"/><rect fill="#302837" x="24.4" y="489.5" width="12.2" height="24.65" shape-rendering="crispEdges"/><rect fill="#302837" x="36.6" y="489.5" width="1207.8" height="24.65" shape-rendering="crispEdges"/><rect fill="#1e1e1e" x="1244.4" y="489.5" width="24.4" height="24.65" shape-rendering="crispEdges"/><rect fill="#1e1e1e" x="0" y="513.9" width="24.4" height="24.65" shape-rendering="crispEdges"/><rect fill="#302837" x="24.4" y="513.9" width="12.2" height="24.65" shape-rendering="crispEdges"/><rect fill="#302837" x="36.6" y="513.9" width="24.4" height="24.65" shape-rendering="crispEdges"/><rect fill="#302837" x="61" y="513.9" width="0" height="24.65" shape-rendering="crispEdges"/><rect fill="#302837" x="61" y="513.9" width="1159" height="24.65" shape-rendering="crispEdges"/><rect fill="#302837" x="1220" y="513.9" width="24.4" height="24.65" shape-rendering="crispEdges"/><rect fill="#1e1e1e" x="1244.4" y="513.9" width="24.4" height="24.65" shape-rendering="crispEdges"/><rect fill="#1e1e1e" x="0" y="538.3" width="24.4" height="24.65" shape-rendering="crispEdges"/><rect fill="#302837" x="24.4" y="538.3" width="12.2" height="24.65" shape-rendering="crispEdges"/><rect fill="#302837" x="36.6" y="538.3" width="1207.8" height="24.65" shape-rendering="crispEdges"/><rect fill="#1e1e1e" x="1244.4" y="538.3" width="24.4" height="24.65" shape-rendering="crispEdges"/><rect fill="#1e1e1e" x="0" y="562.7" width="24.4" height="24.65" shape-rendering="crispEdges"/><rect fill="#1e1e1e" x="24.4" y="562.7" width="1220" height="24.65" shape-rendering="crispEdges"/><rect fill="#1e1e1e" x="1244.4" y="562.7" width="24.4" height="24.65" shape-rendering="crispEdges"/><rect fill="#1e1e1e" x="0" y="587.1" width="24.4" height="24.65" shape-rendering="crispEdges"/><rect fill="#1e1e1e" x="24.4" y="587.1" width="1220" height="24.65" shape-rendering="crispEdges"/><rect fill="#1e1e1e" x="1244.4" y="587.1" width="24.4" height="24.65" shape-rendering="crispEdges"/><rect fill="#1e1e1e" x="0" y="611.5" width="24.4" height="24.65" shape-rendering="crispEdges"/><rect fill="#1e1e1e" x="24.4" y="611.5" width="1220" height="24.65" shape-rendering="crispEdges"/><rect fill="#1e1e1e" x="1244.4" y="611.5" width="24.4" height="24.65" shape-rendering="crispEdges"/><rect fill="#1e1e1e" x="0" y="635.9" width="24.4" height="24.65" shape-rendering="crispEdges"/><rect fill="#1e1e1e" x="24.4" y="635.9" width="1220" height="24.65" shape-rendering="crispEdges"/><rect fill="#1e1e1e" x="1244.4" y="635.9" width="24.4" height="24.65" shape-rendering="crispEdges"/><rect fill="#1e1e1e" x="0" y="660.3" width="1268.8" height="24.65" shape-rendering="crispEdges"/><rect fill="#1e1e1e" x="0" y="684.7" width="1268.8" height="24.65" shape-rendering="crispEdges"/><rect fill="#1e1e1e" x="0" y="709.1" width="24.4" height="24.65" shape-rendering="crispEdges"/><rect fill="#3fb984" x="24.4" y="709.1" width="256.2" height="24.65" shape-rendering="crispEdges"/><rect fill="#1e1e1e" x="280.6" y="709.1" width="24.4" height="24.65" shape-rendering="crispEdges"/><rect fill="#1e1e1e" x="305" y="709.1" width="195.2" height="24.65" shape-rendering="crispEdges"/><rect fill="#1e1e1e" x="500.2" y="709.1" width="744.2" height="24.65" shape-rendering="crispEdges"/><rect fill="#1e1e1e" x="1244.4" y="709.1" width="24.4" height="24.65" shape-rendering="crispEdges"/><rect fill="#1e1e1e" x="0" y="733.5" width="24.4" height="24.65" shape-rendering="crispEdges"/><rect fill="#3fb984" x="24.4" y="733.5" width="256.2" height="24.65" shape-rendering="crispEdges"/><rect fill="#1e1e1e" x="280.6" y="733.5" width="24.4" height="24.65" shape-rendering="crispEdges"/><rect fill="#1e1e1e" x="305" y="733.5" width="48.8" height="24.65" shape-rendering="crispEdges"/><rect fill="#1e1e1e" x="353.8" y="733.5" width="97.6" height="24.65" shape-rendering="crispEdges"/><rect fill="#1e1e1e" x="451.4" y="733.5" width="48.8" height="24.65" shape-rendering="crispEdges"/><rect fill="#1e1e1e" x="500.2" y="733.5" width="744.2" height="24.65" shape-rendering="crispEdges"/><rect fill="#1e1e1e" x="1244.4" y="733.5" width="24.4" height="24.65" shape-rendering="crispEdges"/><rect fill="#1e1e1e" x="0" y="757.9" width="24.4" height="24.65" shape-rendering="crispEdges"/><rect fill="#3fb984" x="24.4" y="757.9" width="256.2" height="24.65" shape-rendering="crispEdges"/><rect fill="#1e1e1e" x="280.6" y="757.9" width="24.4" height="24.65" shape-rendering="crispEdges"/><rect fill="#1e1e1e" x="305" y="757.9" width="195.2" height="24.65" shape-rendering="crispEdges"/><rect fill="#1e1e1e" x="500.2" y="757.9" width="744.2" height="24.65" shape-rendering="crispEdges"/><rect fill="#1e1e1e" x="1244.4" y="757.9" width="24.4" height="24.65" shape-rendering="crispEdges"/><rect fill="#1e1e1e" x="0" y="782.3" width="1268.8" height="24.65" shape-rendering="crispEdges"/><rect fill="#302837" x="0" y="806.7" width="61" height="24.65" shape-rendering="crispEdges"/><rect fill="#302837" x="61" y="806.7" width="85.4" height="24.65" shape-rendering="crispEdges"/><rect fill="#302837" x="146.4" y="806.7" width="976" height="24.65" shape-rendering="crispEdges"/><rect fill="#302837" x="1122.4" y="806.7" width="12.2" height="24.65" shape-rendering="crispEdges"/><rect fill="#302837" x="1134.6" y="806.7" width="24.4" height="24.65" shape-rendering="crispEdges"/><rect fill="#302837" x="1159" y="806.7" width="97.6" height="24.65" shape-rendering="crispEdges"/><rect fill="#302837" x="1256.6" y="806.7" width="12.2" height="24.65" shape-rendering="crispEdges"/>
    <g class="terminal-4204561768-matrix">
    <text class="terminal-4204561768-r2" x="244" y="20" textLength="768.6" clip-path="url(#terminal-4204561768-line-0)">plugarr&#160;&#160;—&#160;&#160;Etape&#160;3/3&#160;-&#160;Recapitulatif&#160;(rien&#160;n&#x27;est&#160;encore&#160;ecrit)</text><text class="terminal-4204561768-r1" x="1268.8" y="20" textLength="12.2" clip-path="url(#terminal-4204561768-line-0)">
</text><text class="terminal-4204561768-r1" x="1268.8" y="44.4" textLength="12.2" clip-path="url(#terminal-4204561768-line-1)">
</text><text class="terminal-4204561768-r3" x="24.4" y="68.8" textLength="158.6" clip-path="url(#terminal-4204561768-line-2)">&#160;Service&#160;&#160;&#160;&#160;&#160;</text><text class="terminal-4204561768-r3" x="183" y="68.8" textLength="475.8" clip-path="url(#terminal-4204561768-line-2)">&#160;Image&#160;&#160;&#160;&#160;&#160;&#160;&#160;&#160;&#160;&#160;&#160;&#160;&#160;&#160;&#160;&#160;&#160;&#160;&#160;&#160;&#160;&#160;&#160;&#160;&#160;&#160;&#160;&#160;&#160;&#160;&#160;&#160;&#160;</text><text class="terminal-4204561768-r3" x="658.8" y="68.8" textLength="280.6" clip-path="url(#terminal-4204561768-line-2)">&#160;URL&#160;&#160;&#160;&#160;&#160;&#160;&#160;&#160;&#160;&#160;&#160;&#160;&#160;&#160;&#160;&#160;&#160;&#160;&#160;</text><text class="terminal-4204561768-r1" x="1268.8" y="68.8" textLength="12.2" clip-path="url(#terminal-4204561768-line-2)">
</text><text class="terminal-4204561768-r4" x="24.4" y="93.2" textLength="158.6" clip-path="url(#terminal-4204561768-line-3)">&#160;qBittorrent&#160;</text><text class="terminal-4204561768-r4" x="183" y="93.2" textLength="475.8" clip-path="url(#terminal-4204561768-line-3)">&#160;lscr.io/linuxserver/qbittorrent:5.2.3&#160;</text><text class="terminal-4204561768-r4" x="658.8" y="93.2" textLength="280.6" clip-path="url(#terminal-4204561768-line-3)">&#160;http://localhost:8080&#160;</text><text class="terminal-4204561768-r1" x="1268.8" y="93.2" textLength="12.2" clip-path="url(#terminal-4204561768-line-3)">
</text><text class="terminal-4204561768-r4" x="24.4" y="117.6" textLength="158.6" clip-path="url(#terminal-4204561768-line-4)">&#160;Sonarr&#160;&#160;&#160;&#160;&#160;&#160;</text><text class="terminal-4204561768-r4" x="183" y="117.6" textLength="475.8" clip-path="url(#terminal-4204561768-line-4)">&#160;lscr.io/linuxserver/sonarr:4.0.19&#160;&#160;&#160;&#160;&#160;</text><text class="terminal-4204561768-r4" x="658.8" y="117.6" textLength="280.6" clip-path="url(#terminal-4204561768-line-4)">&#160;http://localhost:8989&#160;</text><text class="terminal-4204561768-r1" x="1268.8" y="117.6" textLength="12.2" clip-path="url(#terminal-4204561768-line-4)">
</text><text class="terminal-4204561768-r4" x="24.4" y="142" textLength="158.6" clip-path="url(#terminal-4204561768-line-5)">&#160;Radarr&#160;&#160;&#160;&#160;&#160;&#160;</text><text class="terminal-4204561768-r4" x="183" y="142" textLength="475.8" clip-path="url(#terminal-4204561768-line-5)">&#160;lscr.io/linuxserver/radarr:6.3.0&#160;&#160;&#160;&#160;&#160;&#160;</text><text class="terminal-4204561768-r4" x="658.8" y="142" textLength="280.6" clip-path="url(#terminal-4204561768-line-5)">&#160;http://localhost:7878&#160;</text><text class="terminal-4204561768-r1" x="1268.8" y="142" textLength="12.2" clip-path="url(#terminal-4204561768-line-5)">
</text><text class="terminal-4204561768-r4" x="24.4" y="166.4" textLength="158.6" clip-path="url(#terminal-4204561768-line-6)">&#160;Prowlarr&#160;&#160;&#160;&#160;</text><text class="terminal-4204561768-r4" x="183" y="166.4" textLength="475.8" clip-path="url(#terminal-4204561768-line-6)">&#160;lscr.io/linuxserver/prowlarr:2.5.2&#160;&#160;&#160;&#160;</text><text class="terminal-4204561768-r4" x="658.8" y="166.4" textLength="280.6" clip-path="url(#terminal-4204561768-line-6)">&#160;http://localhost:9696&#160;</text><text class="terminal-4204561768-r1" x="1268.8" y="166.4" textLength="12.2" clip-path="url(#terminal-4204561768-line-6)">
</text><text class="terminal-4204561768-r4" x="24.4" y="190.8" textLength="158.6" clip-path="url(#terminal-4204561768-line-7)">&#160;Recyclarr&#160;&#160;&#160;</text><text class="terminal-4204561768-r4" x="183" y="190.8" textLength="475.8" clip-path="url(#terminal-4204561768-line-7)">&#160;ghcr.io/recyclarr/recyclarr:8.7.1&#160;&#160;&#160;&#160;&#160;</text><text class="terminal-4204561768-r4" x="658.8" y="190.8" textLength="280.6" clip-path="url(#terminal-4204561768-line-7)">&#160;tache&#160;de&#160;fond&#160;&#160;&#160;&#160;&#160;&#160;&#160;&#160;&#160;</text><text class="terminal-4204561768-r1" x="1268.8" y="190.8" textLength="12.2" clip-path="url(#terminal-4204561768-line-7)">
</text><text class="terminal-4204561768-r4" x="24.4" y="215.2" textLength="158.6" clip-path="url(#terminal-4204561768-line-8)">&#160;Jellyfin&#160;&#160;&#160;&#160;</text><text class="terminal-4204561768-r4" x="183" y="215.2" textLength="475.8" clip-path="url(#terminal-4204561768-line-8)">&#160;lscr.io/linuxserver/jellyfin:10.11.11&#160;</text><text class="terminal-4204561768-r4" x="658.8" y="215.2" textLength="280.6" clip-path="url(#terminal-4204561768-line-8)">&#160;http://localhost:8096&#160;</text><text class="terminal-4204561768-r1" x="1268.8" y="215.2" textLength="12.2" clip-path="url(#terminal-4204561768-line-8)">
</text><text class="terminal-4204561768-r1" x="1268.8" y="239.6" textLength="12.2" clip-path="url(#terminal-4204561768-line-9)">
</text><text class="terminal-4204561768-r1" x="1268.8" y="264" textLength="12.2" clip-path="url(#terminal-4204561768-line-10)">
</text><text class="terminal-4204561768-r3" x="48.8" y="288.4" textLength="170.8" clip-path="url(#terminal-4204561768-line-11)">Configurations</text><text class="terminal-4204561768-r4" x="219.6" y="288.4" textLength="256.2" clip-path="url(#terminal-4204561768-line-11)">&#160;&#160;/opt/plugarr/config</text><text class="terminal-4204561768-r1" x="1268.8" y="288.4" textLength="12.2" clip-path="url(#terminal-4204561768-line-11)">
</text><text class="terminal-4204561768-r3" x="48.8" y="312.8" textLength="85.4" clip-path="url(#terminal-4204561768-line-12)">Donnees</text><text class="terminal-4204561768-r4" x="134.2" y="312.8" textLength="634.4" clip-path="url(#terminal-4204561768-line-12)">&#160;&#160;&#160;&#160;&#160;&#160;&#160;&#160;/srv/data&#160;&#160;-&gt;&#160;/data&#160;dans&#160;tous&#160;les&#160;conteneurs</text><text class="terminal-4204561768-r1" x="1268.8" y="312.8" textLength="12.2" clip-path="url(#terminal-4204561768-line-12)">
</text><text class="terminal-4204561768-r3" x="48.8" y="337.2" textLength="109.8" clip-path="url(#terminal-4204561768-line-13)">PUID:PGID</text><text class="terminal-4204561768-r4" x="158.6" y="337.2" textLength="195.2" clip-path="url(#terminal-4204561768-line-13)">&#160;&#160;&#160;&#160;&#160;&#160;1000:1000&#160;</text><text class="terminal-4204561768-r5" x="353.8" y="337.2" textLength="378.2" clip-path="url(#terminal-4204561768-line-13)">(detecte&#160;(utilisateur&#160;courant))</text><text class="terminal-4204561768-r1" x="1268.8" y="337.2" textLength="12.2" clip-path="url(#terminal-4204561768-line-13)">
</text><text class="terminal-4204561768-r3" x="48.8" y="361.6" textLength="122" clip-path="url(#terminal-4204561768-line-14)">UMASK&#160;/&#160;TZ</text><text class="terminal-4204561768-r4" x="170.8" y="361.6" textLength="219.6" clip-path="url(#terminal-4204561768-line-14)">&#160;&#160;&#160;&#160;&#160;002&#160;&#160;&#160;Etc/UTC</text><text class="terminal-4204561768-r1" x="1268.8" y="361.6" textLength="12.2" clip-path="url(#terminal-4204561768-line-14)">
</text><text class="terminal-4204561768-r3" x="48.8" y="386" textLength="36.6" clip-path="url(#terminal-4204561768-line-15)">VPN</text><text class="terminal-4204561768-r4" x="85.4" y="386" textLength="353.8" clip-path="url(#terminal-4204561768-line-15)">&#160;&#160;&#160;&#160;&#160;&#160;&#160;&#160;&#160;&#160;&#160;&#160;gluetun&#160;-&#160;airvpn&#160;</text><text class="terminal-4204561768-r5" x="439.2" y="386" textLength="768.6" clip-path="url(#terminal-4204561768-line-15)">(wireguard)&#160;;&#160;le&#160;client&#160;de&#160;telechargement&#160;ne&#160;demarrera&#160;pas&#160;sans</text><text class="terminal-4204561768-r1" x="1268.8" y="386" textLength="12.2" clip-path="url(#terminal-4204561768-line-15)">
</text><text class="terminal-4204561768-r5" x="48.8" y="410.4" textLength="109.8" clip-path="url(#terminal-4204561768-line-16)">le&#160;tunnel</text><text class="terminal-4204561768-r1" x="1268.8" y="410.4" textLength="12.2" clip-path="url(#terminal-4204561768-line-16)">
</text><text class="terminal-4204561768-r3" x="48.8" y="434.8" textLength="170.8" clip-path="url(#terminal-4204561768-line-17)">Liens&#160;a&#160;cabler</text><text class="terminal-4204561768-r4" x="219.6" y="434.8" textLength="36.6" clip-path="url(#terminal-4204561768-line-17)">&#160;20</text><text class="terminal-4204561768-r1" x="1268.8" y="434.8" textLength="12.2" clip-path="url(#terminal-4204561768-line-17)">
</text><text class="terminal-4204561768-r1" x="1268.8" y="459.2" textLength="12.2" clip-path="url(#terminal-4204561768-line-18)">
</text><text class="terminal-4204561768-r1" x="1268.8" y="483.6" textLength="12.2" clip-path="url(#terminal-4204561768-line-19)">
</text><text class="terminal-4204561768-r6" x="24.4" y="508" textLength="12.2" clip-path="url(#terminal-4204561768-line-20)">█</text><text class="terminal-4204561768-r1" x="1268.8" y="508" textLength="12.2" clip-path="url(#terminal-4204561768-line-20)">
</text><text class="terminal-4204561768-r6" x="24.4" y="532.4" textLength="12.2" clip-path="url(#terminal-4204561768-line-21)">█</text><text class="terminal-4204561768-r1" x="1268.8" y="532.4" textLength="12.2" clip-path="url(#terminal-4204561768-line-21)">
</text><text class="terminal-4204561768-r6" x="24.4" y="556.8" textLength="12.2" clip-path="url(#terminal-4204561768-line-22)">█</text><text class="terminal-4204561768-r1" x="1268.8" y="556.8" textLength="12.2" clip-path="url(#terminal-4204561768-line-22)">
</text><text class="terminal-4204561768-r1" x="1268.8" y="581.2" textLength="12.2" clip-path="url(#terminal-4204561768-line-23)">
</text><text class="terminal-4204561768-r1" x="1268.8" y="605.6" textLength="12.2" clip-path="url(#terminal-4204561768-line-24)">
</text><text class="terminal-4204561768-r1" x="1268.8" y="630" textLength="12.2" clip-path="url(#terminal-4204561768-line-25)">
</text><text class="terminal-4204561768-r1" x="1268.8" y="654.4" textLength="12.2" clip-path="url(#terminal-4204561768-line-26)">
</text><text class="terminal-4204561768-r1" x="1268.8" y="678.8" textLength="12.2" clip-path="url(#terminal-4204561768-line-27)">
</text><text class="terminal-4204561768-r1" x="1268.8" y="703.2" textLength="12.2" clip-path="url(#terminal-4204561768-line-28)">
</text><text class="terminal-4204561768-r7" x="24.4" y="727.6" textLength="256.2" clip-path="url(#terminal-4204561768-line-29)">▔▔▔▔▔▔▔▔▔▔▔▔▔▔▔▔▔▔▔▔▔</text><text class="terminal-4204561768-r8" x="305" y="727.6" textLength="195.2" clip-path="url(#terminal-4204561768-line-29)">▔▔▔▔▔▔▔▔▔▔▔▔▔▔▔▔</text><text class="terminal-4204561768-r1" x="1268.8" y="727.6" textLength="12.2" clip-path="url(#terminal-4204561768-line-29)">
</text><text class="terminal-4204561768-r9" x="24.4" y="752" textLength="256.2" clip-path="url(#terminal-4204561768-line-30)">&#160;Installer&#160;et&#160;cabler&#160;</text><text class="terminal-4204561768-r3" x="353.8" y="752" textLength="97.6" clip-path="url(#terminal-4204561768-line-30)">&#160;Retour&#160;</text><text class="terminal-4204561768-r1" x="1268.8" y="752" textLength="12.2" clip-path="url(#terminal-4204561768-line-30)">
</text><text class="terminal-4204561768-r10" x="24.4" y="776.4" textLength="256.2" clip-path="url(#terminal-4204561768-line-31)">▁▁▁▁▁▁▁▁▁▁▁▁▁▁▁▁▁▁▁▁▁</text><text class="terminal-4204561768-r11" x="305" y="776.4" textLength="195.2" clip-path="url(#terminal-4204561768-line-31)">▁▁▁▁▁▁▁▁▁▁▁▁▁▁▁▁</text><text class="terminal-4204561768-r1" x="1268.8" y="776.4" textLength="12.2" clip-path="url(#terminal-4204561768-line-31)">
</text><text class="terminal-4204561768-r1" x="1268.8" y="800.8" textLength="12.2" clip-path="url(#terminal-4204561768-line-32)">
</text><text class="terminal-4204561768-r12" x="0" y="825.2" textLength="61" clip-path="url(#terminal-4204561768-line-33)">&#160;esc&#160;</text><text class="terminal-4204561768-r4" x="61" y="825.2" textLength="85.4" clip-path="url(#terminal-4204561768-line-33)">Retour&#160;</text><text class="terminal-4204561768-r13" x="1122.4" y="825.2" textLength="12.2" clip-path="url(#terminal-4204561768-line-33)">▏</text><text class="terminal-4204561768-r12" x="1134.6" y="825.2" textLength="24.4" clip-path="url(#terminal-4204561768-line-33)">^p</text><text class="terminal-4204561768-r4" x="1159" y="825.2" textLength="97.6" clip-path="url(#terminal-4204561768-line-33)">&#160;palette</text>
    </g>
    </g>
</svg>
